<svg width="12" height="7" viewBox="0 0 12 7" fill="none" xmlns="http://www.w3.org/2000/svg">
<path d="M11.6 6.20303C11.599 6.29868 11.5587 6.39404 11.4793 6.46889L11.4792 6.46902C11.3052 6.63316 11.0139 6.63315 10.8399 6.46903L10.8399 6.46902L6.27441 2.16155L5.99991 1.90256L5.72541 2.16155L1.16013 6.46884C1.16011 6.46886 1.16009 6.46888 1.16007 6.4689C0.985904 6.63308 0.694592 6.63298 0.520667 6.46889L0.520608 6.46884C0.441401 6.39414 0.401194 6.299 0.400026 6.20353C0.401008 6.10784 0.441211 6.01238 0.520675 5.93741L0.520677 5.93741L5.68033 1.06942C5.68035 1.0694 5.68038 1.06938 5.6804 1.06935C5.76506 0.989556 5.87954 0.946338 5.99989 0.946338C6.1203 0.946338 6.23495 0.989678 6.31956 1.06948C6.31957 1.06948 6.31958 1.06949 6.31959 1.0695L11.4792 5.93753L11.4793 5.9376C11.5586 6.0124 11.5988 6.10758 11.6 6.20303Z" fill="white" stroke="white" stroke-width="0.8"/>
</svg>
